<svg height="512pt" viewBox="-43 0 512 512.08148" width="512pt" xmlns="http://www.w3.org/2000/svg"><path d="m417.75 239.015625v102.398437c0 47.128907-38.207031 85.335938-85.332031 85.335938h-238.507813c-47.128906 0-85.335937-38.207031-85.335937-85.335938v-102.398437c0-56.386719 45.589843-102.164063 101.976562-102.402344h205.226563c56.386718.238281 101.972656 46.015625 101.972656 102.402344zm0 0" fill="#a4c2f7"/><path d="m392.574219 239.015625v102.398437c0 47.128907-38.203125 85.335938-85.332031 85.335938h-213.332032c-47.128906 0-85.335937-38.207031-85.335937-85.335938v-102.398437c0-56.386719 45.589843-102.164063 101.976562-102.402344h180.050781c56.386719.238281 101.976563 46.015625 101.972657 102.402344zm0 0" fill="#e3e7f2"/><path d="m307.242188 377.765625v108.714844c-.027344 9.414062-7.652344 17.039062-17.066407 17.066406h-34.132812c-9.414063-.027344-17.039063-7.652344-17.066407-17.066406v-76.800781h-51.199218v76.800781c-.03125 9.414062-7.652344 17.039062-17.066406 17.066406h-34.136719c-9.414063-.027344-17.035157-7.652344-17.066407-17.066406v-108.714844zm0 0" fill="#a4c2f7"/><path d="m61.140625 364.796875c.511719 3.15625 1.195313 7.339844 2.21875 12.289063-1.960937 2.21875-3.753906 4.433593-5.375 6.398437-1.121094 1.398437-2.996094 1.945313-4.691406 1.375-1.699219-.574219-2.859375-2.144531-2.902344-3.933594-.171875-5.378906 0-10.753906.339844-16.128906 1.195312-1.023437 2.476562-1.964844 3.753906-2.902344 1.214844-.84375 2.78125-.996093 4.136719-.40625 1.359375.59375 2.3125 1.84375 2.519531 3.308594zm0 0" fill="#e3e7f2"/><path d="m63.617188 241.574219c1.429687 1.308593 1.78125 3.421875.851562 5.121093-.171875.253907-.253906.511719-.425781.765626-1.070313-1.070313-1.464844-2.644532-1.023438-4.09375.160157-.609376.359375-1.207032.597657-1.792969zm0 0" fill="#e3e7f2"/><path d="m338.21875 377.085938c-3.9375 23.601562-12.117188 46.296874-24.148438 66.984374-.988281 1.46875-2.777343 2.171876-4.5 1.777344-1.722656-.398437-3.023437-1.816406-3.265624-3.570312-.996094-6.125-2.625-12.128906-4.863282-17.917969-.273437-.742187-.746094-1.390625-1.367187-1.878906 7.054687-18.648438 12.144531-37.980469 15.191406-57.683594.207031-1.464844 1.160156-2.714844 2.515625-3.308594 1.359375-.589843 2.921875-.4375 4.140625.40625 5.96875 4.453125 11.433594 9.546875 16.296875 15.191407zm0 0" fill="#a4c2f7"/><path d="m290.945312 171.859375c-1.40625-1.03125-2.035156-2.820313-1.582031-4.5.453125-1.683594 1.894531-2.914063 3.628907-3.097656 6.117187-.800781 11.992187-2.894531 17.238281-6.144531 1.296875-.769532 2.070312-2.191407 2.019531-3.699219-.054688-1.511719-.925781-2.875-2.277344-3.550781-2.449218-1.273438-4.8125-2.695313-7.082031-4.269532-13.1875-9.191406-23.488281-21.949218-29.695313-36.777344-3.71875-8.769531-6.4375-17.929687-8.105468-27.308593-.996094-8.359375-2.738282-16.613281-5.207032-24.660157-9.875-25.359374-32.378906-43.644531-59.222656-48.128906 4.195313-.753906 8.453125-1.125 12.714844-1.109375 31.726562.171875 60.136719 19.6875 71.679688 49.238281 2.46875 8.046876 4.210937 16.300782 5.207031 24.660157 1.671875 9.378906 4.390625 18.539062 8.105469 27.308593 6.210937 14.828126 16.507812 27.585938 29.695312 36.777344 2.269531 1.574219 4.636719 2.996094 7.085938 4.269532 1.347656.675781 2.21875 2.039062 2.273437 3.550781.054687 1.507812-.71875 2.929687-2.019531 3.699219-5.246094 3.25-11.121094 5.34375-17.238282 6.144531-1.730468.183593-3.175781 1.414062-3.628906 3.097656-.453125 1.679687.175782 3.46875 1.582032 4.5 23.449218 17.8125 40.222656 43 47.617187 71.507813.484375 1.742187-.164063 3.605468-1.625 4.671874-1.464844 1.0625-3.4375 1.105469-4.945313.105469-4.589843-3.285156-9.65625-5.847656-15.019531-7.59375-1.460937-.460937-3.058593-.101562-4.183593.9375-7.566407-27.757812-24.09375-52.238281-47.015626-69.628906zm0 0" fill="#a4c2f7"/><path d="m376.363281 380.925781c-.046875 1.789063-1.207031 3.359375-2.902343 3.933594-1.699219.570313-3.574219.023437-4.691407-1.375-5.3125-6.832031-11.316406-13.09375-17.921875-18.6875-3.667968-48.898437-28.757812-99.414063-38.910156-118.101563-.859375-1.53125-.691406-3.429687.421875-4.789062 1.113281-1.355469 2.941406-1.894531 4.613281-1.355469 5.363282 1.746094 10.429688 4.308594 15.015625 7.59375 1.761719 1.183594 4.125.894531 5.546875-.683593 11.605469 21.507812 40.535156 80.640624 38.828125 133.464843zm0 0" fill="#a4c2f7"/><path d="m282.070312 377.765625v108.714844c-.027343 9.414062-7.652343 17.039062-17.066406 17.066406h-8.960937c-9.414063-.027344-17.039063-7.652344-17.066407-17.066406v-76.800781h-76.375v76.800781c-.027343 9.414062-7.652343 17.039062-17.066406 17.066406h-8.960937c-9.414063-.027344-17.035157-7.652344-17.066407-17.066406v-108.714844zm0 0" fill="#e3e7f2"/><path d="m350.847656 364.796875c-1.195312-1.023437-2.472656-1.964844-3.753906-2.902344-1.214844-.84375-2.78125-.996093-4.136719-.40625-1.355469.59375-2.308593 1.84375-2.519531 3.308594-.511719 3.15625-1.28125 7.339844-2.21875 12.289063-4.863281-5.644532-10.328125-10.738282-16.296875-15.191407-1.21875-.84375-2.78125-.996093-4.140625-.40625-1.355469.59375-2.308594 1.84375-2.515625 3.308594-3.046875 19.703125-8.136719 39.035156-15.191406 57.683594-1.765625-1.378907-4.304688-1.15625-5.800781.511719-4.984376 5.46875-9.492188 11.351562-13.484376 17.578124-2.511718 3.890626-4.601562 8.039063-6.230468 12.375-.488282 1.453126-1.734375 2.523438-3.246094 2.789063s-3.046875-.3125-4.003906-1.507813c-3.859375-4.925781-7.367188-10.117187-10.496094-15.53125-2.257812-3.886718-4.28125-7.90625-6.058594-12.03125-.628906-1.480468-2.039062-2.480468-3.640625-2.589843-1.605469-.109375-3.132812.695312-3.957031 2.078125-3.027344 5.261718-6.332031 10.359375-9.898438 15.273437-5.09375 7.882813-11.886718 14.53125-19.882812 19.457031-4.761719-2.628906-9.011719-6.097656-12.542969-10.242187-6.53125-7.582031-12.304687-15.785156-17.238281-24.488281-.820312-1.382813-2.347656-2.1875-3.953125-2.078125s-3.011719 1.109375-3.640625 2.589843c-2.230469 5.085938-4.792969 10.015626-7.679688 14.761719-2.695312 4.441407-5.660156 8.71875-8.875 12.800781-.960937 1.195313-2.496093 1.773438-4.003906 1.507813-1.511718-.265625-2.757812-1.335937-3.25-2.789063-1.875-5.027343-4.398437-9.792968-7.507812-14.164062-3.625-5.589844-7.707032-10.871094-12.203125-15.789062-1-1.105469-2.503907-1.613282-3.96875-1.335938-1.464844.28125-2.679688 1.304688-3.199219 2.703125-2.066406 5.234375-3.582031 10.667969-4.523438 16.210937-.144531.5625-.261718 1.132813-.339843 1.707032-.246094 1.753906-1.542969 3.171875-3.265625 3.570312-1.722656.394532-3.515625-.308594-4.5-1.777344-4.441406-6.789062-8.15625-14.027343-11.09375-21.589843-7.113282-18.632813-12.234375-37.96875-15.273438-57.683594-.210937-1.464844-1.164062-2.714844-2.519531-3.308594-1.355469-.589843-2.921875-.4375-4.136719.40625-5.972656 4.453125-11.4375 9.546875-16.300781 15.191407-1.023437-4.949219-1.707031-9.132813-2.21875-12.289063-.207031-1.464844-1.160156-2.714844-2.519531-3.308594-1.355469-.589843-2.921875-.4375-4.136719.40625-1.277344.9375-2.558594 1.878907-3.753906 2.902344 3.667969-48.898437 28.757812-99.414063 38.914062-118.101563.855469-1.53125.6875-3.429687-.425781-4.789062-1.109375-1.355469-2.941406-1.894531-4.609375-1.355469-5.367187 1.746094-10.433594 4.308594-15.019531 7.59375-1.761719 1.183594-4.125.894531-5.546875-.683593.171875-.253907.253906-.511719.425781-.765626.929688-1.699218.578125-3.8125-.851562-5.121093 7.511718-27.808594 24.050781-52.332031 47.015624-69.714844 1.410157-1.03125 2.035157-2.820313 1.582032-4.5-.453125-1.683594-1.894532-2.914063-3.628906-3.097656-6.117188-.800781-11.992188-2.894531-17.238282-6.144531-1.296875-.769532-2.070312-2.191407-2.019531-3.699219.054687-1.511719.925781-2.875 2.277344-3.550781 4.003906-2.136719 7.828125-4.589844 11.433593-7.339844 17.734376-15.089844 29.53125-35.988282 33.28125-58.964844 1.121094-9.824219 3.207032-19.515625 6.230469-28.929688 10.300781-24.1875 32.191407-41.484374 58.109375-45.910156 26.84375 4.484375 49.347656 22.769532 59.222656 48.128906 2.46875 8.046876 4.210938 16.300782 5.207032 24.660157 1.667968 9.378906 4.386718 18.539062 8.105468 27.308593 6.207032 14.828126 16.507813 27.585938 29.695313 36.777344 2.269531 1.574219 4.632813 2.996094 7.082031 4.269532 1.351563.675781 2.222656 2.039062 2.277344 3.550781.050781 1.507812-.722656 2.929687-2.019531 3.699219-5.246094 3.25-11.121094 5.34375-17.238281 6.144531-1.734376.183593-3.175782 1.414062-3.628907 3.097656-.453125 1.679687.175781 3.46875 1.582031 4.5 22.921876 17.390625 39.449219 41.871094 47.015626 69.628906-1.421876 1.347657-1.769532 3.476563-.851563 5.207031.171875.253907.257813.511719.425781.765626-1.421875 1.578124-3.785156 1.867187-5.546875.683593-4.585937-3.285156-9.652343-5.847656-15.015625-7.59375-1.671875-.539062-3.5 0-4.613281 1.355469-1.113281 1.359375-1.28125 3.257812-.421875 4.789062 10.152344 18.6875 35.242188 69.203126 38.910156 118.101563zm0 0" fill="#e3e7f2"/><path d="m337.535156 247.460938c-.167968-.253907-.253906-.511719-.425781-.765626-.917969-1.730468-.570313-3.859374.851563-5.207031.238281.613281.4375 1.242188.597656 1.878907.441406 1.449218.046875 3.023437-1.023438 4.09375zm0 0" fill="#e3e7f2"/><path d="m261.871094 201.46875c15.664062 17.664062 25.539062 39.699219 28.304687 63.144531-8.03125-4.171875-16.671875-7.054687-25.601562-8.53125 10.214843 21.378907 16.019531 44.597657 17.070312 68.265625-8.03125-4.175781-16.671875-7.054687-25.601562-8.53125 0 0 8.53125 42.664063-25.601563 59.730469 0 0-8.53125-25.597656-17.066406-25.597656-8.53125 0-17.066406 25.597656-17.066406 25.597656-34.132813-17.066406-25.597656-59.730469-25.597656-59.730469-8.929688 1.476563-17.570313 4.355469-25.601563 8.53125 1.050781-23.667968 6.855469-46.886718 17.066406-68.265625-8.929687 1.476563-17.570312 4.359375-25.601562 8.53125 2.765625-23.445312 12.644531-45.480469 28.308593-63.144531 3.214844-3.292969 7.625-5.140625 12.226563-5.121094h72.535156c4.597657-.019531 9.011719 1.828125 12.226563 5.121094zm0 0" fill="#a4c2f7"/><path d="m145.109375 486.480469v-42.289063c-.824219 1.058594-2.101563 1.667969-3.441406 1.644532-1.34375-.023438-2.597657-.675782-3.386719-1.765626-3.566406-5.488281-6.632812-11.285156-9.164062-17.320312h-9.609376c-47.125 0-85.332031-38.207031-85.332031-85.335938v-102.398437c0-56.386719 45.585938-102.164063 101.972657-102.402344 13.414062-14.511719 22.363281-32.585937 25.773437-52.050781 1.121094-9.824219 3.207031-19.515625 6.226563-28.929688 10.277343-24.121093 32.082031-41.386718 57.917968-45.867187-4.191406-.738281-8.4375-1.125-12.691406-1.152344-4.261719-.015625-8.519531.355469-12.714844 1.109375-25.917968 4.425782-47.808594 21.722656-58.109375 45.910156-3.023437 9.414063-5.109375 19.105469-6.230469 28.929688-3.398437 19.460938-12.328124 37.535156-25.726562 52.050781-56.40625.214844-102.019531 45.996094-102.019531 102.402344v102.398437c0 47.128907 38.207031 85.335938 85.335937 85.335938h9.609375c2.53125 6.035156 5.597657 11.832031 9.164063 17.320312.785156 1.089844 2.039062 1.742188 3.382812 1.765626 1.34375.023437 2.617188-.585938 3.441406-1.644532v42.289063c.03125 9.414062 7.652344 17.039062 17.066407 17.066406h25.601562c-9.414062-.027344-17.039062-7.652344-17.066406-17.066406zm0 0" fill="#fff"/><path d="m.0429688 239.015625h17.0664062v102.398437h-17.0664062zm0 0" fill="#fff"/><g fill="#428dff"><path d="m5.332031 289.632812c.492188.210938 1.007813.355469 1.539063.4375.5625.082032 1.132812.128907 1.703125.144532 2.203125-.003906 4.339843-.753906 6.058593-2.125.757813-.671875 1.367188-1.492188 1.792969-2.40625 1.28125-2.757813.546875-6.03125-1.792969-7.980469-.839843-.671875-1.792968-1.191406-2.8125-1.535156-3.15625-1.148438-6.683593-.566407-9.304687 1.535156-1.566406 1.269531-2.4765625 3.179687-2.4765625 5.195313 0 2.015624.9101565 3.921874 2.4765625 5.191406l1.28125.851562c.480469.296875.996094.527344 1.535156.691406zm0 0"/><path d="m320.324219 128.328125c-5.863281-6.492187-10.640625-13.882813-14.148438-21.894531-3.433593-8.234375-5.957031-16.820313-7.527343-25.601563-.449219-2.335937-.808594-4.675781-1.175782-7.015625-.773437-6.488281-2.257812-12.875-4.421875-19.042968-12.480469-32.535157-43.488281-54.214844-78.328125-54.7617192-34.84375-.5507808-66.519531 20.1406252-80.015625 52.2695312-2.722656 7.136719-4.519531 14.59375-5.351562 22.183594-.425781 2.808594-.851563 5.617187-1.398438 8.40625-3 16.757812-10.378906 32.425781-21.382812 45.414062-59.421875 2.453125-106.375 51.257813-106.5312502 110.730469v14.625c.3710932 4.359375 4.1679692 7.613281 8.5312502 7.3125 4.367187.300781 8.164062-2.953125 8.535156-7.3125v-14.625c.101563-40.5625 26.179687-76.492187 64.707031-89.164063-.570312 1.355469-.910156 2.796876-.996094 4.265626-.15625 4.585937 2.15625 8.902343 6.058594 11.316406 3.589844 2.203125 7.429688 3.972656 11.441406 5.261718-21.078124 18.636719-36.191406 43.074219-43.449218 70.257813-1.566406 5.207031.332031 10.835937 4.730468 14.03125 4.398438 3.199219 10.335938 3.269531 14.808594.175781.597656-.402344 1.1875-.792968 1.765625-1.167968-14.09375 28.203124-35.8125 79.742187-34.320312 127.1875.125 5.398437 3.625 10.136718 8.746093 11.84375 5.125 1.707031 10.765626.019531 14.105469-4.222657 4.363281-5.578125 9.191407-10.777343 14.429688-15.539062 2.742187 15.210937 6.648437 30.1875 11.691406 44.800781-41.148437-1.652344-73.667969-35.464844-73.71875-76.648438v-29.261718c-.375-4.355469-4.171875-7.605469-8.535156-7.3125-4.359375-.292969-8.15625 2.957031-8.5312502 7.3125v29.261718c.015625 27.003907 11.6953122 52.683594 32.0351562 70.445313l-14.074219 28.15625c-2.105468 4.21875-.394531 9.347656 3.824219 11.453125s9.34375.394531 11.453125-3.824219l12.800781-25.597656c4.15625 2.496094 8.503907 4.660156 13.003907 6.476563l-7.578126 30.300781c-1.144531 4.570312 1.632813 9.207031 6.203126 10.351562.675781.164063 1.371093.246094 2.066406.238281 3.910156-.003906 7.316406-2.664062 8.265625-6.457031l7.382812-29.519531c6.085938 1.222656 12.277344 1.839844 18.484375 1.84375h4.078125c2.222657 4.710938 4.789063 9.25 7.679688 13.585938 1.339843 1.914062 3.179687 3.429687 5.316406 4.378906v33.234375c0 14.140625 11.460937 25.601562 25.601563 25.601562h34.132812c14.136719 0 25.597656-11.460937 25.597656-25.601562v-28.296875c3.8125 4.167968 8.289063 7.671875 13.246094 10.378906 2.402344 1.199219 5.226562 1.199219 7.628906 0 4.957032-2.707031 9.4375-6.210938 13.25-10.378906v28.296875c0 14.140625 11.460938 25.601562 25.601563 25.601562h34.132812c14.140625 0 25.601563-11.460937 25.601563-25.601562v-33.277344c2.136718-.949219 3.976562-2.460937 5.316406-4.378906 2.886719-4.335938 5.453125-8.875 7.679688-13.585938h3.652343c6.203125-.003906 12.390625-.621093 18.472657-1.84375l7.382812 29.519531c.949219 3.792969 4.355469 6.453126 8.269531 6.457032.699219.003906 1.398438-.082032 2.082031-.253906 4.570313-1.144532 7.347657-5.78125 6.203126-10.351563l-7.570313-30.300781c4.496094-1.820313 8.839844-3.984375 12.996094-6.476563l12.800781 25.597657c1.347656 2.753906 4.070312 4.570312 7.128906 4.761718s5.984375-1.269531 7.667969-3.832031c1.679687-2.558594 1.859375-5.828125.46875-8.558594l-14.070313-28.160156c20.324219-17.746094 31.996094-43.402344 32.023438-70.382813v-102.398437c-.164062-59.242187-46.777344-107.9375-105.957031-110.6875zm-149.613281 366.6875h-8.535157v-8.535156c0-4.710938-3.820312-8.53125-8.53125-8.53125-4.714843 0-8.535156 3.820312-8.535156 8.53125v8.535156h-8.535156c-4.710938 0-8.53125-3.820313-8.53125-8.535156v-40.105469c.386719-.871094.671875-1.78125.851562-2.714844.496094-3.140625 1.183594-6.25 2.050781-9.308594 5.5 6.351563 9.933594 13.558594 13.121094 21.332032 1.507813 4.410156 5.296875 7.648437 9.890625 8.445312 4.589844.796875 9.25-.976562 12.152344-4.621094 4.957031-6.285156 9.351563-12.992187 13.132813-20.046874v47.019531c0 4.714843-3.820313 8.535156-8.53125 8.535156zm42.664062-44.246094c-9.078125-8.269531-16.660156-18.046875-22.40625-28.902343-2.265625-3.9375-6.464844-6.359376-11.007812-6.347657h-.761719c-4.835938.28125-9.101563 3.269531-11.015625 7.722657-3.003906 6.925781-6.699219 13.53125-11.023438 19.71875-5.015625-9.277344-11.160156-17.898438-18.296875-25.660157-2.96875-3.320312-7.453125-4.859375-11.835937-4.0625-4.382813.800781-8.035156 3.816407-9.644532 7.972657-1.152343 2.929687-2.152343 5.917968-2.992187 8.949218-1.09375-2.132812-2.125-4.359375-3.125-6.628906l-.109375-.246094c-7.726562-19.269531-13.226562-39.355468-16.394531-59.871094-.699219-4.351562-3.585938-8.035156-7.640625-9.757812-4.058594-1.71875-8.714844-1.230469-12.328125 1.292969-5.726563 4.171875-11.003907 8.933593-15.742188 14.207031 2.558594-49.195312 29.398438-102.398438 38.09375-118.433594 2.488281-4.578125 1.953125-10.207031-1.351562-14.234375-3.300781-4.027343-8.71875-5.648437-13.695313-4.105469-2.511718.789063-4.964844 1.761719-7.335937 2.902344 7.625-22.511718 21.875-42.195312 40.882812-56.472656 4.25-3.019531 6.199219-8.347656 4.898438-13.398438-1.289063-5.140624-5.609375-8.960937-10.871094-9.597656-2.351563-.304687-4.660156-.851562-6.894531-1.632812 1.894531-1.246094 3.746094-2.558594 5.535156-3.992188 19.34375-16.34375 32.25-39.023437 36.421875-64 .597656-3.039062 1.066406-6.109375 1.527344-9.171875.644531-6.167969 2.046875-12.234375 4.171875-18.058593 10.789062-25.710938 36.128906-42.273438 64.007812-41.84375 27.878906.433593 52.691406 17.773437 62.679688 43.808593 1.703125 5.042969 2.875 10.25 3.488281 15.539063.394531 2.558594.792969 5.117187 1.28125 7.628906 1.800781 9.992188 4.695313 19.761719 8.636719 29.121094 4.320312 9.859375 10.234375 18.941406 17.5 26.882812.753906 1.589844 1.984375 2.90625 3.515625 3.769532 3.601562 3.625 7.53125 6.910156 11.734375 9.8125l.734375.496093c-2.238281.78125-4.554688 1.328125-6.90625 1.628907-5.257813.644531-9.574219 4.460937-10.859375 9.601562-1.304688 5.050781.644531 10.378906 4.894531 13.398438 19.007813 14.273437 33.261719 33.957031 40.886719 56.472656-2.371094-1.144532-4.820313-2.109375-7.332032-2.894532-4.972656-1.546874-10.390624.074219-13.695312 4.101563-3.304688 4.023437-3.84375 9.652344-1.355469 14.230469 8.695313 16.050781 35.515625 69.238281 38.089844 118.433594-4.730469-5.273438-10.003906-10.03125-15.734375-14.199219-3.613281-2.527344-8.273438-3.019531-12.332031-1.296875-4.058594 1.71875-6.949219 5.40625-7.644531 9.761718-3.101563 19.847657-8.34375 39.304688-15.632813 58.027344-.894531 1.125-1.484375 2.460938-1.707031 3.882813-.75 1.636719-1.527344 3.25-2.328125 4.8125-.839844-3.039063-1.839844-6.035157-2.996094-8.96875-1.609375-4.15625-5.261719-7.171875-9.644531-7.972657-4.382813-.796874-8.863282.742188-11.835938 4.0625-7.136718 7.777344-13.277344 16.410157-18.285156 25.703126-4.3125-6.183594-7.996094-12.785157-10.992188-19.703126-1.914062-4.421874-6.152343-7.394531-10.964843-7.6875-4.808594-.292968-9.378907 2.140626-11.816407 6.296876-5.757812 10.855468-13.351562 20.632812-22.445312 28.902343zm76.800781 44.246094h-8.53125v-8.535156c0-4.710938-3.824219-8.53125-8.535156-8.53125s-8.535156 3.820312-8.535156 8.53125v8.535156h-8.53125c-4.714844 0-8.535157-3.820313-8.535157-8.535156v-47.019531c3.777344 7.054687 8.171876 13.757812 13.125 20.039062 2.898438 3.652344 7.558594 5.429688 12.152344 4.636719s8.386719-4.03125 9.890625-8.445313c3.1875-7.773437 7.621094-14.980468 13.125-21.332031.867188 3.0625 1.550781 6.175781 2.046875 9.320313.179688.929687.46875 1.835937.851563 2.703124v40.097657c0 4.710937-3.8125 8.53125-8.523438 8.535156zm119.039063-153.601563c-.050782 41-32.296875 74.726563-73.25 76.621094 5.042968-14.601562 8.945312-29.570312 11.683594-44.773437 5.238281 4.761719 10.066406 9.960937 14.429687 15.539062 3.347656 4.214844 8.972656 5.882813 14.078125 4.179688 5.101562-1.707031 8.597656-6.421875 8.738281-11.800781 1.460938-47.4375-20.257812-98.984376-34.355469-127.144532.582032.375 1.171876.765625 1.769532 1.167969 4.46875 3.089844 10.40625 3.019531 14.800781-.175781 4.398437-3.195313 6.296875-8.816406 4.738281-14.023438-7.257812-27.1875-22.371094-51.625-43.449218-70.265625 4.007812-1.292969 7.847656-3.0625 11.441406-5.265625 3.902344-2.410156 6.214844-6.726562 6.058594-11.3125-.074219-1.398437-.382813-2.773437-.914063-4.070312 38.265625 12.804687 64.101563 48.578125 64.230469 88.925781zm0 0"/><path d="m179.242188 76.882812v17.066407c0 4.710937 3.820312 8.53125 8.535156 8.53125 4.710937 0 8.53125-3.820313 8.53125-8.53125v-17.066407c4.714844 0 8.535156-3.820312 8.535156-8.535156 0-4.710937-3.820312-8.53125-8.535156-8.53125h-17.066406c-4.710938 0-8.53125 3.820313-8.53125 8.53125 0 4.714844 3.820312 8.535156 8.53125 8.535156zm0 0"/><path d="m230.441406 76.882812v17.066407c0 4.710937 3.820313 8.53125 8.535156 8.53125 4.710938 0 8.53125-3.820313 8.53125-8.53125v-17.066407c4.714844 0 8.535157-3.820312 8.535157-8.535156 0-4.710937-3.820313-8.53125-8.535157-8.53125h-17.066406c-4.710937 0-8.53125 3.820313-8.53125 8.53125 0 4.714844 3.820313 8.535156 8.53125 8.535156zm0 0"/><path d="m179.242188 153.679688h68.265624c4.714844 0 8.535157-3.820313 8.535157-8.53125 0-4.714844-3.820313-8.535157-8.535157-8.535157h-8.53125v-8.53125c0-4.714843-3.820312-8.535156-8.535156-8.535156-4.710937 0-8.53125 3.820313-8.53125 8.535156v8.53125h-17.066406v-8.53125c0-4.714843-3.820312-8.535156-8.535156-8.535156-4.710938 0-8.53125 3.820313-8.53125 8.535156v8.53125h-8.535156c-4.710938 0-8.53125 3.820313-8.53125 8.535157 0 4.710937 3.820312 8.53125 8.53125 8.53125zm0 0"/><path d="m265.617188 326.773438c4.164062 1.511718 8.238281 3.253906 12.210937 5.210937 2.644531 1.324219 5.789063 1.179687 8.304687-.375 2.515626-1.554687 4.042969-4.304687 4.042969-7.261719-.496093-18.929687-4.195312-37.636718-10.949219-55.328125 2.636719 1.089844 5.121094 2.234375 7.136719 3.234375 2.871094 1.433594 6.304688 1.132813 8.886719-.777344 2.578125-1.90625 3.871094-5.105468 3.339844-8.269531-9.035156-54.222656-36.640625-73.183593-37.8125-73.957031-3.90625-2.617188-9.195313-1.578125-11.824219 2.324219-2.625 3.902343-1.601563 9.191406 2.292969 11.832031.195312.136719 17.621094 12.585938 27.09375 47-4.417969-1.644531-9.058594-2.609375-13.765625-2.859375-2.964844-.015625-5.726563 1.507813-7.289063 4.027344-1.566406 2.519531-1.714844 5.667969-.390625 8.320312 7.636719 16.175781 12.816407 33.402344 15.363281 51.109375-8.382812-3.074218-18.160156-6.207031-22.785156-.609375-1.625 1.96875-2.28125 4.5625-1.792968 7.066407.257812 1.324218 5.386718 29.234374-13.046876 45.160156-4.933593-11.152344-11.957031-21.207032-21.257812-21.207032s-16.324219 10.054688-21.246094 21.207032c-18.433594-15.925782-13.304687-43.828125-13.058594-45.132813.503907-2.507812-.144531-5.105469-1.765624-7.082031-4.605469-5.617188-14.402344-2.484375-22.792969.597656 2.554687-17.703125 7.726562-34.925781 15.34375-51.109375 1.328125-2.652343 1.179687-5.800781-.386719-8.320312s-4.328125-4.042969-7.292969-4.027344c-4.707031.253906-9.351562 1.214844-13.773437 2.859375 9.480468-34.40625 26.898437-46.855469 27.042968-46.933594 2.535157-1.691406 3.976563-4.609375 3.78125-7.652344-.199218-3.039062-2.003906-5.746093-4.738281-7.097656-2.730469-1.351562-5.976562-1.140625-8.515625.550782-1.167968.777343-28.773437 19.738281-37.808594 73.957031-.53125 3.167969.757813 6.363281 3.339844 8.273437 2.582032 1.910156 6.015625 2.207032 8.886719.773438 1.988281-.996094 4.496094-2.140625 7.132813-3.242188-6.742188 17.6875-10.445313 36.390625-10.949219 55.3125-.015625 2.964844 1.511719 5.726563 4.027343 7.292969 2.519532 1.566406 5.667969 1.714844 8.320313.386719 3.972656-1.960938 8.050781-3.703125 12.214844-5.222656-1.386719 23.300781 10.839843 45.296874 31.359375 56.421874 2.214844 1.121094 4.808594 1.21875 7.105468.269532 2.292969-.949219 4.0625-2.851563 4.839844-5.207032 2.097656-6.582031 5.105469-12.839843 8.933594-18.585937 3.851562 5.730469 6.875 11.976563 8.976562 18.550781.785157 2.34375 2.546876 4.234375 4.828126 5.179688 2.285156.945312 4.867187.855468 7.078124-.25 20.519532-11.121094 32.746094-33.113282 31.359376-56.410156zm0 0"/></g></svg>